<?xml version="1.0" encoding="iso-8859-1"?>
<!-- Uploaded to: SVG Repo, www.svgrepo.com, Generator: SVG Repo Mixer Tools -->
<svg height="800px" width="800px" version="1.1" id="Layer_1" xmlns="http://www.w3.org/2000/svg" xmlns:xlink="http://www.w3.org/1999/xlink" 
	 viewBox="0 0 512.001 512.001" xml:space="preserve">
<path style="fill:#AF9CE6;" d="M407.637,135.925L407.637,135.925l-0.045-0.089C372.991,53.922,313.135,0,256.002,0
	c-57.155,0-117.04,53.959-151.635,135.925l19.706,32.251l131.931,14.702l131.931-14.702L407.637,135.925L407.637,135.925z"/>
<path style="fill:#FFA0C1;" d="M437.162,285.643c0-37.546-5.197-73.239-14.281-105.873l-166.88,3.109l-166.88-3.109
	c-9.083,32.635-14.281,68.327-14.281,105.873c0,21.255,1.655,40.859,4.725,58.88l0.122,0.691l37.419,36.105l138.895,21.217
	l138.895-21.217l37.419-36.105l0,0l0,0C435.457,326.996,437.162,307.171,437.162,285.643z"/>
<path style="fill:#AF9CE6;" d="M256.002,402.535H96.273l0.071,0.154C128.908,478.599,193.582,512,256.003,512
	c62.431,0,127.116-33.412,159.675-109.349l0.055-0.116H256.002z"/>
<path style="fill:#ABEB8A;" d="M425.366,375.504c0.001-0.003,0.002-0.007,0.002-0.01c0.685-2.352,1.341-4.737,1.97-7.153
	c0.016-0.062,0.033-0.124,0.049-0.186c1.906-7.341,3.555-14.987,4.928-22.942l0,0c-41.725,21.173-103.164,36.105-176.314,36.105
	s-134.587-14.932-176.314-36.105c1.373,7.956,3.022,15.603,4.928,22.945c0.015,0.059,0.031,0.12,0.046,0.179
	c0.63,2.421,1.287,4.809,1.972,7.164l0,0c2.063,7.086,4.375,13.871,6.911,20.365c0.058,0.147,0.116,0.295,0.173,0.441
	c0.828,2.105,1.677,4.184,2.551,6.228c46.407,16.368,101.794,25.21,159.729,25.21s113.323-8.843,159.73-25.21
	c0.875-2.044,1.724-4.122,2.551-6.228c0.058-0.147,0.116-0.295,0.174-0.442C420.993,389.373,423.304,382.589,425.366,375.504z"/>
<ellipse style="fill:#61CCFF;" cx="255.999" cy="293.141" rx="34.58" ry="44.407"/>
<g>
	<ellipse style="fill:#FFDF96;" cx="140.059" cy="272.585" rx="32.685" ry="41.97"/>
	<ellipse style="fill:#FFDF96;" cx="371.939" cy="272.585" rx="32.685" ry="41.97"/>
</g>
<path style="fill:#ABEB8A;" d="M422.881,179.768c-0.005-0.016-0.009-0.033-0.014-0.049c-0.861-3.094-1.767-6.153-2.697-9.19
	c-0.247-0.808-0.49-1.619-0.742-2.423c-0.368-1.172-0.747-2.335-1.126-3.499c-0.259-0.796-0.515-1.595-0.779-2.388
	c-0.391-1.177-0.79-2.345-1.192-3.512c-0.261-0.759-0.521-1.517-0.787-2.273c-0.418-1.192-0.843-2.377-1.271-3.559
	c-0.254-0.7-0.51-1.397-0.767-2.095c-0.452-1.221-0.906-2.439-1.37-3.648c-0.237-0.62-0.477-1.235-0.717-1.851
	c-0.494-1.272-0.99-2.541-1.497-3.8c-0.19-0.475-0.387-0.944-0.578-1.417c-0.564-1.385-1.129-2.768-1.707-4.138
	c-39.789,15.229-91.791,25.227-151.635,25.227s-111.847-9.998-151.637-25.227v0.001c-0.577,1.366-1.14,2.746-1.703,4.127
	c-0.194,0.477-0.391,0.951-0.584,1.429c-0.506,1.259-1.002,2.528-1.496,3.8c-0.239,0.615-0.479,1.23-0.716,1.849
	c-0.462,1.208-0.917,2.425-1.368,3.643c-0.259,0.701-0.516,1.402-0.772,2.107c-0.428,1.179-0.851,2.363-1.269,3.552
	c-0.265,0.756-0.526,1.515-0.787,2.274c-0.402,1.168-0.801,2.336-1.192,3.512c-0.263,0.793-0.52,1.591-0.779,2.388
	c-0.378,1.164-0.758,2.327-1.126,3.499c-0.252,0.804-0.494,1.616-0.742,2.423c-0.931,3.038-1.836,6.097-2.697,9.19
	c-0.005,0.016-0.009,0.032-0.014,0.049c47.814,18.033,105.941,27.81,166.88,27.81S375.067,197.801,422.881,179.768z"/>
<path style="opacity:0.1;enable-background:new    ;" d="M164.342,422.946c-9.29-16.504-16.877-35.461-22.273-57.002
	c-5.914-23.607-9.196-50.317-9.196-80.303c0-43.908,7.115-85.274,19.235-122.187c9.492-28.909,22.056-55.076,36.697-77.58
	c27.093-41.644,61.28-70.735,96.212-81.389C275.355,1.541,265.639,0,255.999,0c-44.496,0-90.643,32.715-125.229,85.875
	c-14.641,22.504-27.205,48.672-36.697,77.58c-12.12,36.913-19.235,78.28-19.235,122.188c0,29.986,3.282,56.694,9.196,80.303
	c5.396,21.541,12.984,40.498,22.273,57.002c34.697,61.635,93.123,89.054,149.69,89.054c9.661,0,19.374-0.821,29.017-2.454
	C238.203,501.614,193.113,474.054,164.342,422.946z"/>
</svg>